# xmcd CD database file generated by OrangeCD 6.4
#
# Track frame offsets:
#	150
#	18585
#	37107
#	56995
#	73792
#	93895
#	113900
#	136862
#	154222
#	175090
#	192415
#	213717
#	231482
#	254090
#
# Disc length: 3723 seconds
#
# Revision: 3
# Processed by: cddbd v1.5.2PL0 Copyright (c) Steve Scherf et al.
# Submitted via: OrangeCD 6.4
#
DISCID=d80e890e
DTITLE=The JW-Jones Blues Band - Bogart's Bounce
DYEAR=2002
DGENRE=Blues
TTITLE0=Flatline
TTITLE1=Jump Tonight
TTITLE2=Ain't Soon Enough
TTITLE3=Sweet Sugar Mama
TTITLE4=Time To Move On
TTITLE5=Bogart's Bounce
TTITLE6=Without You
TTITLE7=Don't Tease Me
TTITLE8=Understanding A Woman
TTITLE9=Don't Sugar Coat It
TTITLE10=Heard The News
TTITLE11=You Forgot To Come Back
TTITLE12=Blind Date Woman
TTITLE13=Goldtop Groove
EXTD=
EXTT0=
EXTT1=
EXTT2=
EXTT3=
EXTT4=
EXTT5=
EXTT6=
EXTT7=
EXTT8=
EXTT9=
EXTT10=
EXTT11=
EXTT12=
EXTT13=
PLAYORDER=
